<?xml version="1.0" encoding="utf-8"?>
<!-- Generator: Adobe Illustrator 16.0.0, SVG Export Plug-In . SVG Version: 6.00 Build 0)  -->
<!DOCTYPE svg PUBLIC "-//W3C//DTD SVG 1.1//EN" "http://www.w3.org/Graphics/SVG/1.1/DTD/svg11.dtd">
<svg version="1.1" id="Layer_1" xmlns="http://www.w3.org/2000/svg" xmlns:xlink="http://www.w3.org/1999/xlink" x="0px" y="0px"
	 width="1580.847px" height="297.669px" viewBox="0 0 1580.847 297.669" enable-background="new 0 0 1580.847 297.669"
	 xml:space="preserve">
<g id="Cat_2_6_">
	<g>
		<text transform="matrix(1 0 0 1 632.6094 200.2048)"><tspan x="0" y="0" fill="#254354" stroke="#000000" stroke-width="2.5" stroke-miterlimit="10" font-family="'Lumberjack-Regular'" font-size="172.9367" letter-spacing="22">Inbox</tspan><tspan x="483.18" y="0" fill="#716D5C" stroke="#000000" stroke-width="2.5" stroke-miterlimit="10" font-family="'Lumberjack-Regular'" font-size="172.9367">Kitten</tspan></text>
		<text transform="matrix(1 0 0 1 621.9326 200.2048)"><tspan x="0" y="0" fill="#6DA1D5" stroke="#000000" stroke-width="2.5" stroke-miterlimit="10" font-family="'Lumberjack-Regular'" font-size="172.9367" letter-spacing="22">Inbox</tspan><tspan x="483.18" y="0" fill="#FBF9DD" stroke="#000000" stroke-width="2.5" stroke-miterlimit="10" font-family="'Lumberjack-Regular'" font-size="172.9367">Kitten</tspan></text>
	</g>
	<g>
		<defs>
			<rect id="SVGID_5_" width="609.344" height="297.669"/>
		</defs>
		<clipPath id="SVGID_2_">
			<use xlink:href="#SVGID_5_"  overflow="visible"/>
		</clipPath>
		<g clip-path="url(#SVGID_2_)">
			<path fill="none" stroke="#000000" stroke-width="9" stroke-miterlimit="10" d="M624.434,443.038l-65.637-296.99
				c-5.605-25.413-30.48-18.934-30.48-18.934l-30.875,6.819c-6.242-3.457-13.584-5.73-21.596-6.962l-15.715-35.594
				c0,0,25.32-66.945-7.879-84.382c-26.99-14.18-77.066,34.874-77.066,34.874c-23.621-13.497-76.928-12.787-80.727-12.787
				c-0.814,0-6.213,0-7.027,0c-2.604,0-28.5-0.331-52.131,3.817c0-0.047,0.01-0.085,0.018-0.132
				c-10.881,1.856-21.318,4.649-28.887,8.836c-3.324-3.192-39.666-37.574-66.084-37.167c-4.111-0.038-7.992,0.719-11.498,2.558
				c-33.188,17.437-7.869,84.382-7.869,84.382l-5.59,12.654c0.236,0.066,0.475,0.104,0.711,0.17l-32.596,73.812
				c0,0-3.201,9.461-4.594,21.708c-0.9,4.859-1.375,9.869-1.375,14.984c0,4.025,0.381,7.956,0.939,11.83l-27.27,6.033
				c0,0-25.273,4.603-19.664,30.006l3.221,14.577c-14.713,12.976-16.896,34.959-10.555,58.212
				c5.695,20.903,16.807,37.422,32.984,43.256l39.992,180.954c0,0,8.678,41.107,41.828,33.776
				c4.451-0.985,12.738-2.775,23.707-5.134c1.969,6.952,5.682,12.758,10.686,17.493c-7.787,9.368-14.428,19.863-17.6,30.868
				c0,0,8.818-10.04,19.236-18.905c-27.297,65.524-4.48,151.062-4.48,151.062s51.432-84.523,159.67-96.78
				c-14.887,9.481-22.568,20.212-22.568,20.212c14.396-11.688,63.695-17.561,82.848-19.436c5.352,0.71,10.789,1.554,16.338,2.624
				c0.977,0.189,1.932,0.322,2.898,0.492c-9.139,7.691-11.271,17.059-11.271,17.059c35.07-12.001,75.539-19.625,75.539-19.625
				c48.393-14.511,76.398-57.351,92.396-97.482c3.627-8.467,7.266-18.024,10.789-28.623c16.641-11.479,25.24-28.472,18.193-50.293
				c-0.426-1.345-0.938-2.699-1.486-4.063c2.795-0.635,5.115-1.156,6.838-1.535C633.889,483.974,624.434,443.038,624.434,443.038z"
				/>
			<path fill="#FDFADC" stroke="#C3BFA0" stroke-miterlimit="10" d="M503.588,212.926c0.539-17.919-5.199-34.911-5.199-34.911
				l-38.258-86.637c0,0,25.32-66.945-7.879-84.382c-26.99-14.18-77.066,34.874-77.066,34.874
				c-23.621-13.497-76.928-12.787-80.727-12.787c-0.814,0-6.213,0-7.027,0c-3.799,0-57.102-0.71-80.725,12.787
				c0,0-50.078-49.054-77.07-34.874c-33.197,17.437-7.879,84.382-7.879,84.382l-38.252,86.637c0,0-3.201,9.461-4.594,21.708
				c-0.9,4.859-1.375,9.869-1.375,14.984c0,45.814,37.143,82.962,82.957,82.962c5.797,0,31.4-1.791,35.52-2.084
				c7.871-0.559,15.75-2.235,30.943-6.185c8.58-2.226,32.09-2.833,50.91-2.946v0.132h26.158v-0.132
				c18.82,0.113,42.32,0.72,50.912,2.946c15.184,3.949,23.07,5.626,30.943,6.185c4.584,0.332,28.982,2.084,34.789,2.084
				c45.818,0,82.965-37.148,82.965-82.962C503.635,214.11,503.607,213.514,503.588,212.926z"/>
			<path fill="#FF953E" stroke="#C3BFA0" stroke-miterlimit="10" d="M138.379,107.242c40.709,0,92.574-37.241,96.939-74.474
				c-11.117,1.894-21.791,4.764-29.398,9.102c0,0-50.066-49.054-77.07-34.874c-33.188,17.437-7.869,84.382-7.869,84.382
				l-5.59,12.654C122.969,106.097,130.725,107.242,138.379,107.242z"/>
			<path fill="#98947E" d="M133.568,61.978c0,0,0.426-34.173,7.594-37.119c7.17-2.955,32.906,14.339,32.906,14.339
				S148.75,59.459,133.568,61.978z"/>
			<path fill="#98947E" d="M447.402,61.978c0,0-0.426-34.173-7.605-37.119c-7.166-2.955-32.9,14.339-32.9,14.339
				S432.215,59.459,447.402,61.978z"/>
			<path fill="none" stroke="#C3BFA0" stroke-miterlimit="10" d="M503.588,212.926c0.539-17.919-5.199-34.911-5.199-34.911
				l-38.258-86.637c0,0,25.32-66.945-7.879-84.382c-26.99-14.18-77.066,34.874-77.066,34.874
				c-23.621-13.497-76.928-12.787-80.727-12.787c-0.814,0-6.213,0-7.027,0c-3.799,0-57.102-0.71-80.725,12.787
				c0,0-50.078-49.054-77.07-34.874c-33.197,17.437-7.879,84.382-7.879,84.382l-38.252,86.637c0,0-3.201,9.461-4.594,21.708
				c-0.9,4.859-1.375,9.869-1.375,14.984c0,45.814,37.143,82.962,82.957,82.962c5.797,0,31.4-1.791,35.52-2.084
				c7.871-0.559,15.75-2.235,30.943-6.185c8.58-2.226,32.09-2.833,50.91-2.946v0.132h26.158v-0.132
				c18.82,0.113,42.32,0.72,50.912,2.946c15.184,3.949,23.07,5.626,30.943,6.185c4.584,0.332,28.982,2.084,34.789,2.084
				c45.818,0,82.965-37.148,82.965-82.962C503.635,214.11,503.607,213.514,503.588,212.926z"/>
			<g>
				<g>
					<path d="M125.693,155.697c0,0-1.82-0.872-5.141-2.077c-1.66-0.602-3.689-1.295-6.043-2.003
						c-2.352-0.717-5.027-1.458-7.969-2.166c-2.938-0.723-6.145-1.403-9.553-2.031c-1.709-0.284-3.455-0.641-5.256-0.894
						c-1.803-0.255-3.639-0.543-5.514-0.785c-1.879-0.211-3.787-0.427-5.721-0.645c-1.939-0.158-3.9-0.319-5.879-0.48
						c-1.977-0.19-3.979-0.212-5.984-0.327l-3.012-0.138l-3.023-0.037c-2.014-0.005-4.037-0.085-6.033-0.027
						c-2.01,0.047-4.014,0.093-6,0.139c-3.961,0.212-7.852,0.367-11.609,0.766c-0.939,0.087-1.871,0.174-2.795,0.259
						c-0.918,0.12-1.828,0.239-2.729,0.357c-1.803,0.228-3.562,0.461-5.266,0.76c-1.707,0.274-3.369,0.534-4.957,0.891
						c-1.594,0.324-3.135,0.635-4.592,1.029c-0.73,0.183-1.447,0.363-2.148,0.538c-0.697,0.184-1.369,0.396-2.031,0.584
						c-0.658,0.195-1.301,0.385-1.926,0.569c-0.615,0.211-1.213,0.416-1.793,0.615c-2.322,0.788-4.285,1.639-5.893,2.358
						c-1.586,0.761-2.805,1.42-3.6,1.929c-0.809,0.491-1.197,0.809-1.197,0.809l-0.064-0.076c0,0,0.383-0.341,1.172-0.87
						c0.777-0.547,1.973-1.264,3.537-2.1c1.58-0.804,3.529-1.732,5.848-2.587c0.578-0.218,1.176-0.442,1.791-0.673
						c0.623-0.205,1.264-0.415,1.922-0.631c0.66-0.21,1.334-0.443,2.031-0.649c0.701-0.19,1.42-0.386,2.154-0.584
						c1.461-0.422,3.008-0.762,4.609-1.115c1.594-0.386,3.262-0.677,4.977-0.982c0.859-0.147,1.725-0.329,2.607-0.453
						c0.887-0.115,1.783-0.232,2.689-0.35c0.906-0.118,1.822-0.237,2.748-0.357c0.928-0.085,1.865-0.172,2.811-0.259
						c3.775-0.395,7.707-0.57,11.686-0.717c1.988-0.022,3.992-0.045,6.002-0.068c2.027-0.034,4.041,0.07,6.066,0.099l3.031,0.065
						l3.023,0.167c2.01,0.134,4.018,0.174,5.998,0.383c1.982,0.181,3.949,0.36,5.893,0.537c1.938,0.236,3.85,0.47,5.732,0.7
						c3.752,0.541,7.373,1.108,10.781,1.791c3.408,0.671,6.615,1.393,9.551,2.154c2.938,0.746,5.609,1.522,7.955,2.27
						c2.35,0.738,4.375,1.458,6.029,2.082c3.309,1.247,5.125,2.145,5.125,2.144L125.693,155.697z"/>
				</g>
				<g>
					<path d="M122.934,179.749c0,0-6.641-1-16.686-1.489c-2.51-0.131-5.23-0.205-8.109-0.255c-2.879-0.017-5.914-0.029-9.051,0.077
						c-3.139,0.074-6.377,0.271-9.662,0.529c-1.643,0.12-3.291,0.317-4.949,0.474c-1.652,0.212-3.314,0.401-4.969,0.648
						c-3.303,0.512-6.6,1.081-9.799,1.841c-0.801,0.187-1.598,0.373-2.391,0.558c-0.785,0.21-1.568,0.419-2.346,0.626
						c-1.566,0.382-3.074,0.889-4.568,1.347c-1.504,0.434-2.922,1.033-4.344,1.525c-1.41,0.521-2.742,1.144-4.076,1.669
						c-1.311,0.571-2.549,1.212-3.768,1.786c-1.197,0.613-2.312,1.287-3.406,1.89c-2.119,1.316-4.062,2.542-5.641,3.824
						c-1.658,1.185-2.9,2.456-4.016,3.403c-1.074,0.991-1.811,1.881-2.365,2.437c-0.537,0.572-0.824,0.877-0.824,0.877l-0.078-0.062
						c0,0,0.271-0.321,0.779-0.921c0.523-0.585,1.217-1.52,2.244-2.574c1.061-1.018,2.268-2.356,3.902-3.606
						c1.557-1.346,3.459-2.682,5.584-4.055c1.096-0.633,2.213-1.34,3.414-1.986c1.221-0.606,2.463-1.282,3.779-1.888
						c2.639-1.205,5.5-2.298,8.51-3.265c1.51-0.461,3.035-0.972,4.615-1.357c0.785-0.205,1.576-0.411,2.373-0.618
						c0.801-0.175,1.607-0.351,2.418-0.528c3.234-0.721,6.561-1.246,9.891-1.713c1.666-0.229,3.338-0.402,5-0.596
						c1.668-0.138,3.326-0.318,4.979-0.42c3.299-0.222,6.551-0.384,9.699-0.423c6.295-0.128,12.172,0.082,17.193,0.409
						c10.051,0.639,16.682,1.739,16.682,1.739L122.934,179.749z"/>
				</g>
				<g>
					<path d="M131.883,201.534c0,0-1.312,0.05-3.59,0.345c-2.279,0.284-5.52,0.834-9.342,1.764c-1.906,0.487-3.967,1.03-6.109,1.732
						c-2.146,0.679-4.385,1.477-6.664,2.393c-2.279,0.915-4.596,1.953-6.9,3.107c-1.16,0.56-2.289,1.205-3.445,1.808
						c-1.123,0.661-2.27,1.292-3.377,1.986c-2.217,1.389-4.396,2.838-6.441,4.4c-0.514,0.387-1.025,0.772-1.533,1.156
						c-0.494,0.402-0.986,0.803-1.475,1.202c-0.486,0.399-0.973,0.795-1.453,1.189c-0.465,0.414-0.926,0.824-1.383,1.231
						c-0.461,0.403-0.918,0.803-1.369,1.199c-0.436,0.416-0.865,0.828-1.291,1.235c-0.855,0.812-1.689,1.607-2.461,2.424
						c-1.596,1.583-2.982,3.191-4.283,4.662c-1.227,1.53-2.422,2.881-3.361,4.172c-0.934,1.293-1.816,2.377-2.451,3.333
						c-1.301,1.895-2.043,2.977-2.043,2.977l-0.086-0.052c0,0,0.67-1.133,1.842-3.115c0.562-1.008,1.389-2.14,2.275-3.48
						c0.438-0.676,0.953-1.357,1.494-2.079c0.543-0.72,1.098-1.491,1.719-2.262c1.271-1.517,2.631-3.179,4.201-4.821
						c0.754-0.852,1.59-1.666,2.451-2.491c0.428-0.415,0.859-0.835,1.297-1.259c0.455-0.404,0.914-0.812,1.377-1.224
						c0.467-0.407,0.938-0.818,1.412-1.231c0.492-0.394,0.986-0.79,1.484-1.188c0.498-0.396,1.002-0.795,1.506-1.196
						c0.521-0.378,1.047-0.759,1.572-1.141c2.096-1.541,4.324-2.965,6.584-4.326c1.129-0.685,2.295-1.305,3.438-1.955
						c1.174-0.592,2.32-1.225,3.496-1.772c2.338-1.129,4.686-2.141,6.992-3.029c2.307-0.885,4.566-1.666,6.738-2.303
						c2.166-0.664,4.246-1.17,6.168-1.623c3.855-0.86,7.113-1.349,9.402-1.59c2.287-0.253,3.605-0.277,3.605-0.277L131.883,201.534z
						"/>
				</g>
			</g>
			<g>
				<g>
					<path d="M461.039,155.606c0,0,1.818-0.897,5.127-2.144c1.654-0.624,3.68-1.343,6.029-2.082
						c2.348-0.747,5.018-1.523,7.957-2.269c2.936-0.761,6.141-1.482,9.551-2.154c3.408-0.682,7.029-1.249,10.783-1.791
						c1.881-0.229,3.795-0.463,5.73-0.7c1.943-0.177,3.91-0.356,5.895-0.536c1.98-0.21,3.988-0.25,5.998-0.384l3.023-0.167
						l3.033-0.065c2.023-0.028,4.039-0.132,6.064-0.099c2.012,0.023,4.016,0.046,6.002,0.068c3.98,0.146,7.912,0.322,11.688,0.717
						c0.945,0.087,1.883,0.173,2.811,0.259c0.926,0.12,1.842,0.239,2.748,0.357c0.906,0.118,1.803,0.234,2.689,0.35
						c0.885,0.124,1.75,0.306,2.607,0.453c1.715,0.306,3.385,0.596,4.979,0.982c1.602,0.353,3.146,0.693,4.609,1.115
						c0.734,0.199,1.451,0.394,2.154,0.584c0.697,0.206,1.371,0.439,2.031,0.649c0.658,0.216,1.299,0.427,1.922,0.631
						c0.615,0.231,1.213,0.456,1.791,0.673c2.318,0.855,4.27,1.783,5.848,2.587c1.564,0.836,2.762,1.553,3.539,2.1
						c0.789,0.528,1.17,0.869,1.17,0.87l-0.064,0.076c0,0-0.389-0.318-1.195-0.809c-0.795-0.508-2.016-1.168-3.602-1.928
						c-1.607-0.719-3.57-1.57-5.893-2.358c-0.58-0.199-1.178-0.404-1.793-0.615c-0.625-0.185-1.268-0.375-1.928-0.57
						c-0.66-0.188-1.332-0.4-2.031-0.584c-0.699-0.176-1.416-0.355-2.148-0.538c-1.455-0.395-2.996-0.706-4.592-1.029
						c-1.586-0.356-3.25-0.616-4.957-0.891c-1.703-0.299-3.463-0.532-5.266-0.76c-0.9-0.118-1.811-0.237-2.729-0.357
						c-0.924-0.086-1.855-0.172-2.795-0.259c-3.758-0.399-7.648-0.554-11.609-0.766c-1.988-0.046-3.99-0.092-6.002-0.139
						c-1.996-0.057-4.02,0.022-6.033,0.027l-3.023,0.037l-3.014,0.139c-2.004,0.115-4.006,0.136-5.982,0.327
						c-1.979,0.162-3.941,0.322-5.879,0.48c-1.934,0.218-3.844,0.433-5.723,0.645c-1.875,0.242-3.711,0.53-5.512,0.785
						c-1.803,0.254-3.549,0.61-5.258,0.894c-3.408,0.628-6.617,1.308-9.555,2.031c-2.941,0.708-5.615,1.449-7.967,2.166
						c-2.355,0.708-4.385,1.401-6.045,2.003c-3.32,1.205-5.143,2.077-5.143,2.077L461.039,155.606z"/>
				</g>
				<g>
					<path d="M463.828,179.65c0,0,6.629-1.101,16.682-1.739c5.023-0.327,10.9-0.537,17.195-0.409c3.148,0.039,6.4,0.201,9.701,0.423
						c1.65,0.102,3.309,0.282,4.977,0.42c1.662,0.194,3.336,0.367,5.002,0.596c3.328,0.468,6.656,0.993,9.891,1.714
						c0.811,0.177,1.617,0.353,2.42,0.528c0.795,0.207,1.586,0.413,2.373,0.618c1.578,0.384,3.104,0.895,4.615,1.357
						c3.008,0.967,5.869,2.06,8.508,3.265c1.318,0.606,2.561,1.282,3.781,1.888c1.201,0.646,2.318,1.352,3.414,1.985
						c2.127,1.373,4.029,2.709,5.584,4.055c1.637,1.25,2.844,2.588,3.904,3.606c1.027,1.054,1.721,1.989,2.244,2.574
						c0.508,0.601,0.779,0.921,0.779,0.921l-0.078,0.062c0,0-0.287-0.305-0.824-0.877c-0.555-0.556-1.291-1.445-2.365-2.437
						c-1.115-0.948-2.359-2.218-4.018-3.403c-1.576-1.283-3.521-2.508-5.641-3.824c-1.094-0.603-2.209-1.276-3.406-1.89
						c-1.219-0.574-2.457-1.215-3.768-1.786c-1.334-0.524-2.666-1.148-4.078-1.669c-1.42-0.492-2.84-1.09-4.344-1.524
						c-1.494-0.458-3.002-0.965-4.566-1.347c-0.779-0.208-1.561-0.417-2.348-0.627c-0.793-0.185-1.59-0.371-2.391-0.557
						c-3.199-0.761-6.496-1.329-9.801-1.841c-1.652-0.247-3.314-0.437-4.967-0.648c-1.66-0.156-3.309-0.354-4.951-0.474
						c-3.285-0.258-6.523-0.455-9.662-0.529c-3.137-0.106-6.174-0.094-9.053-0.077c-2.877,0.05-5.6,0.124-8.109,0.255
						c-10.045,0.488-16.686,1.489-16.686,1.489L463.828,179.65z"/>
				</g>
				<g>
					<path d="M454.896,201.435c0,0,1.318,0.024,3.607,0.277c2.289,0.241,5.547,0.729,9.402,1.59
						c1.922,0.453,4.004,0.958,6.168,1.623c2.174,0.638,4.432,1.418,6.74,2.303c2.307,0.887,4.654,1.899,6.992,3.028
						c1.178,0.548,2.324,1.181,3.498,1.772c1.143,0.65,2.309,1.271,3.438,1.955c2.262,1.361,4.49,2.785,6.586,4.326
						c0.525,0.382,1.051,0.762,1.572,1.141c0.504,0.401,1.008,0.799,1.506,1.195c0.498,0.399,0.994,0.795,1.484,1.188
						c0.475,0.414,0.945,0.824,1.412,1.231c0.463,0.412,0.924,0.819,1.379,1.224c0.436,0.424,0.869,0.844,1.297,1.259
						c0.861,0.825,1.699,1.639,2.451,2.491c1.57,1.642,2.932,3.304,4.203,4.821c0.621,0.771,1.176,1.542,1.719,2.262
						c0.541,0.722,1.057,1.403,1.494,2.079c0.889,1.34,1.713,2.472,2.277,3.48c1.172,1.982,1.842,3.115,1.842,3.115l-0.086,0.052
						c0,0-0.742-1.083-2.045-2.977c-0.635-0.956-1.518-2.04-2.451-3.333c-0.939-1.292-2.135-2.643-3.361-4.172
						c-1.301-1.47-2.689-3.08-4.285-4.662c-0.771-0.817-1.605-1.612-2.461-2.424c-0.426-0.407-0.855-0.819-1.291-1.235
						c-0.453-0.396-0.91-0.795-1.371-1.199c-0.457-0.407-0.918-0.817-1.383-1.231c-0.48-0.394-0.965-0.79-1.453-1.189
						c-0.488-0.398-0.98-0.799-1.473-1.202c-0.51-0.384-1.021-0.769-1.535-1.156c-2.045-1.562-4.227-3.011-6.441-4.4
						c-1.109-0.695-2.256-1.326-3.379-1.987c-1.156-0.603-2.285-1.248-3.445-1.808c-2.305-1.154-4.623-2.192-6.902-3.106
						c-2.279-0.916-4.518-1.713-6.666-2.393c-2.141-0.702-4.203-1.245-6.109-1.732c-3.824-0.93-7.064-1.479-9.342-1.764
						c-2.279-0.295-3.592-0.345-3.592-0.345L454.896,201.435z"/>
				</g>
			</g>
			<g>
				<path d="M224.551,125.522c0,8.629-6.99,15.628-15.617,15.628c-8.641,0-15.629-6.999-15.629-15.628
					c0-8.628,6.988-15.627,15.629-15.627C217.561,109.895,224.551,116.895,224.551,125.522z"/>
				<path d="M387.869,125.522c0,8.629-7,15.628-15.627,15.628c-8.629,0-15.619-6.999-15.619-15.628
					c0-8.628,6.99-15.627,15.619-15.627C380.869,109.895,387.869,116.895,387.869,125.522z"/>
			</g>
			<g>
				<path fill="#FFFFFF" stroke="#575757" stroke-miterlimit="10" d="M528.316,127.114l-192,42.432l-93.107,20.582L51.207,232.57
					c0,0-25.273,4.603-19.664,30.006l65.643,296.999c0,0,8.678,41.107,41.828,33.776c19.455-4.3,111.65-23.954,184.582-39.459
					l0.18,0.759c0,0,18.734-4.3,46.477-10.666c27.838-5.92,46.639-9.917,46.639-9.917l-0.162-0.758
					c72.662-16.669,164.564-37.716,184.018-42.025c33.143-7.312,23.688-48.248,23.688-48.248l-65.637-296.99
					C553.191,120.635,528.316,127.114,528.316,127.114z"/>
				<path fill="none" stroke="#575757" stroke-miterlimit="10" d="M547.621,129.444L379.043,362.776
					c0,0-16.434,23.688-42.084,29.353c-25.639,5.663-60.484-12.863-60.484-12.863L34.68,242.819"/>
				
					<text transform="matrix(0.9741 -0.226 0.226 0.9741 261.1934 324.1201)" fill="#575757" font-family="'MyriadPro-Regular'" font-size="172.1099">@</text>
			</g>
			<g>
				<path fill="#FDFADC" d="M340.955,161.481c0,9.656-13.941,23.722-27.105,23.722c-14.41,0-26.096-10.618-26.096-23.727
					c0-13.099,11.686-23.716,26.096-23.716C328.262,137.76,340.955,148.382,340.955,161.481z"/>
				<path fill="#FDFADC" d="M294.025,161.476c0,13.109-11.309,24.857-25.26,24.857c-13.953,0-31.062-13.786-31.062-24.852
					c0-13.099,17.109-23.721,31.062-23.721C282.717,137.76,294.025,148.377,294.025,161.476z"/>
			</g>
			<g>
				<path d="M304.264,163.03c0-1.837-1.477-3.315-3.307-3.315h-20.742c-1.838,0-3.314,1.479-3.314,3.315
					c0,1.856,10.627,11.375,13.791,11.375C294.062,174.405,304.264,165.208,304.264,163.03z"/>
				<g>
					<path d="M239.914,170.022c1.859,1.692,3.795,3.295,5.783,4.826c1.002,0.754,1.996,1.521,3.033,2.228
						c1.02,0.729,2.066,1.417,3.123,2.09c1.047,0.685,2.133,1.312,3.211,1.944c1.105,0.581,2.186,1.219,3.33,1.718
						c0.566,0.259,1.125,0.54,1.699,0.782l1.742,0.674c0.574,0.244,1.17,0.416,1.768,0.587c0.598,0.166,1.184,0.374,1.789,0.504
						c1.217,0.217,2.424,0.514,3.656,0.526l0.918,0.063l0.23,0.016c0.027,0.003,0.1,0.006,0.09,0.008l0.119-0.007l0.469-0.028
						l1.883-0.111c1.201-0.21,2.406-0.374,3.582-0.765c0.295-0.088,0.596-0.158,0.887-0.26l0.857-0.34
						c0.574-0.222,1.148-0.442,1.689-0.742c1.111-0.53,2.166-1.179,3.178-1.879c1.01-0.71,1.973-1.487,2.873-2.332
						c0.908-0.837,1.754-1.742,2.545-2.691c0.781-0.949,1.531-1.959,2.154-2.98l0.408-0.669l0.438,0.643
						c0.643,0.943,1.393,1.868,2.16,2.748c0.783,0.872,1.598,1.72,2.465,2.509c0.861,0.795,1.77,1.542,2.715,2.232
						c0.939,0.701,1.938,1.312,2.949,1.898l1.564,0.79c0.531,0.245,1.082,0.439,1.621,0.663c0.533,0.242,1.107,0.362,1.664,0.535
						l0.84,0.244c0.283,0.065,0.572,0.105,0.857,0.159c0.576,0.085,1.145,0.24,1.727,0.269l1.744,0.115
						c0.523,0.032,1.166-0.059,1.744-0.083l0.891-0.059l0.848-0.174c0.562-0.126,1.133-0.211,1.693-0.369l1.672-0.548
						c0.566-0.158,1.09-0.432,1.633-0.658c0.533-0.249,1.094-0.44,1.604-0.739c1.043-0.551,2.088-1.1,3.076-1.752
						c1.021-0.598,1.963-1.318,2.943-1.984c0.939-0.721,1.904-1.414,2.803-2.188c0.924-0.746,1.805-1.542,2.691-2.333
						c1.738-1.617,3.428-3.295,5.002-5.081c-0.742,0.931-1.535,1.819-2.334,2.704c-0.809,0.876-1.645,1.723-2.49,2.565
						c-0.865,0.82-1.725,1.647-2.629,2.426c-0.883,0.806-1.83,1.533-2.756,2.289c-0.967,0.704-1.912,1.439-2.932,2.068
						c-0.988,0.679-2.039,1.256-3.09,1.837c-0.514,0.313-1.084,0.521-1.623,0.785c-0.551,0.242-1.082,0.53-1.66,0.705l-1.711,0.596
						c-0.58,0.175-1.189,0.281-1.785,0.423l-0.898,0.197l-0.889,0.076c-0.609,0.036-1.15,0.135-1.814,0.118l-1.818-0.093
						c-0.607-0.028-1.199-0.183-1.801-0.269c-0.299-0.055-0.6-0.095-0.895-0.162l-0.877-0.247c-0.58-0.176-1.178-0.3-1.734-0.546
						c-0.561-0.227-1.135-0.428-1.688-0.678l-1.627-0.809c-1.049-0.6-2.086-1.226-3.061-1.942c-0.979-0.706-1.918-1.469-2.809-2.282
						c-0.898-0.806-1.738-1.672-2.551-2.564c-0.801-0.909-1.561-1.829-2.266-2.849l0.846-0.026
						c-0.672,1.131-1.439,2.135-2.258,3.122c-0.824,0.976-1.703,1.905-2.648,2.766c-0.938,0.868-1.939,1.666-2.99,2.396
						c-1.055,0.721-2.152,1.387-3.312,1.932c-0.564,0.307-1.164,0.534-1.764,0.762l-0.896,0.348
						c-0.303,0.104-0.615,0.177-0.924,0.267c-1.217,0.396-2.508,0.57-3.785,0.776l-1.883,0.099l-0.471,0.025l-0.117,0.006
						c-0.088,0.001-0.094-0.005-0.145-0.007l-0.24-0.018l-0.961-0.07c-1.291-0.031-2.531-0.365-3.783-0.612
						c-0.619-0.146-1.217-0.37-1.826-0.551c-0.609-0.187-1.217-0.375-1.797-0.634l-1.76-0.72c-0.578-0.257-1.139-0.551-1.709-0.825
						c-1.152-0.529-2.229-1.192-3.336-1.8c-1.076-0.658-2.158-1.311-3.199-2.02c-1.043-0.71-2.074-1.433-3.076-2.197
						c-1.02-0.741-1.992-1.541-2.975-2.328c-0.973-0.797-1.93-1.615-2.871-2.448C241.729,171.764,240.801,170.914,239.914,170.022z"
						/>
				</g>
			</g>
			<path fill="#FDFADC" stroke="#C3BFA0" stroke-miterlimit="10" d="M518.816,171.517c0,31.891-25.855,81.077-57.746,81.077
				c-31.896,0-57.754-49.186-57.754-81.077c0-31.9,25.857-45.672,57.754-45.672C492.961,125.845,518.816,139.616,518.816,171.517z"
				/>
			<path fill="#FDFADC" stroke="#C3BFA0" stroke-miterlimit="10" d="M53.092,267.643c30.764-8.392,85.012,3.628,93.404,34.401
				c8.383,30.774-32.27,68.65-63.037,77.032c-30.773,8.392-50.861-12.929-59.25-43.711
				C15.816,304.593,22.314,276.026,53.092,267.643z"/>
		</g>
	</g>
</g>
</svg>
