<?xml version="1.0" encoding="utf-8"?>
<!-- Generator: Adobe Illustrator 16.0.0, SVG Export Plug-In . SVG Version: 6.00 Build 0)  -->
<!DOCTYPE svg PUBLIC "-//W3C//DTD SVG 1.1//EN" "http://www.w3.org/Graphics/SVG/1.1/DTD/svg11.dtd">
<svg version="1.1" id="Layer_1" xmlns="http://www.w3.org/2000/svg" xmlns:xlink="http://www.w3.org/1999/xlink" x="0px" y="0px"
	 width="532px" height="658px" viewBox="0 0 532 658" enable-background="new 0 0 532 658" xml:space="preserve">
<g id="Cat_2_3_">
	<g>
		<path fill="none" stroke="#000000" stroke-width="7" stroke-miterlimit="10" d="M527.481,374.032l-55.446-250.879
			c-4.736-21.467-25.748-15.993-25.748-15.993l-26.082,5.76c-5.272-2.92-11.474-4.84-18.242-5.881l-13.274-30.067
			c0,0,21.388-56.551-6.656-71.28c-22.799-11.978-65.101,29.46-65.101,29.46C296.978,23.75,251.948,24.35,248.739,24.35
			c-0.688,0-5.248,0-5.937,0c-2.199,0-24.075-0.28-44.037,3.225c0-0.04,0.009-0.072,0.016-0.112
			c-9.192,1.568-18.01,3.929-24.402,7.465c-2.808-2.696-33.508-31.74-55.823-31.396c-3.473-0.032-6.752,0.607-9.713,2.16
			c-28.034,14.729-6.647,71.28-6.647,71.28l-4.722,10.689c0.2,0.057,0.4,0.088,0.601,0.145l-27.535,62.352
			c0,0-2.705,7.992-3.881,18.338c-0.761,4.104-1.161,8.337-1.161,12.657c0,3.4,0.321,6.721,0.793,9.993l-23.035,5.097
			c0,0-21.351,3.889-16.61,25.348l2.721,12.313c-12.429,10.961-14.273,29.531-8.916,49.174c4.812,17.658,14.197,31.611,27.862,36.54
			l33.784,152.858c0,0,7.329,34.725,35.333,28.532c3.76-0.832,10.761-2.345,20.026-4.337c1.663,5.873,4.8,10.777,9.025,14.777
			c-6.577,7.913-12.187,16.778-14.866,26.075c0,0,7.448-8.48,16.25-15.97c-23.06,55.351-3.785,127.607-3.785,127.607
			s43.446-71.4,134.88-81.754c-12.576,8.009-19.066,17.074-19.066,17.074c12.162-9.873,53.808-14.834,69.985-16.418
			c4.521,0.6,9.113,1.312,13.802,2.217c0.824,0.159,1.632,0.271,2.448,0.415c-7.721,6.497-9.521,14.41-9.521,14.41
			c29.624-10.138,63.812-16.578,63.812-16.578c40.878-12.258,64.536-48.446,78.05-82.346c3.064-7.153,6.137-15.226,9.113-24.179
			c14.058-9.697,21.322-24.052,15.37-42.485c-0.36-1.137-0.793-2.28-1.256-3.433c2.36-0.536,4.32-0.977,5.776-1.296
			C535.467,408.612,527.481,374.032,527.481,374.032z"/>
		<g>
			<path fill="#FEFBDD" stroke="#C4C0A1" stroke-miterlimit="10" d="M495.679,417.437c0,0-16.171,178.975-151.999,152.844
				c-135.825-26.147-199.601,78.881-199.601,78.881S97.226,473.54,236.97,460.154c139.733-13.386,83.171-41.189,83.171-41.189
				L495.679,417.437z"/>
			<g>
				<path fill="#FEFBDD" d="M404.898,569.063c0,0-38.668,5.904-68.292,16.042c0,0,3.744-16.546,23.723-21.418"/>
				<path fill="#C4C0A1" d="M404.906,569.113c-5.771,0.96-11.522,2.048-17.257,3.206c-2.866,0.585-5.729,1.181-8.586,1.811
					l-4.283,0.947l-4.276,0.979c-2.845,0.674-5.688,1.356-8.52,2.087c-1.419,0.351-2.834,0.72-4.243,1.105l-4.231,1.147
					l-4.212,1.215c-1.408,0.392-2.795,0.852-4.192,1.276c-2.798,0.844-5.561,1.786-8.338,2.688l-0.86,0.279l0.214-0.859
					c0.182-0.727,0.405-1.387,0.656-2.06c0.251-0.666,0.528-1.32,0.826-1.965c0.606-1.284,1.285-2.534,2.075-3.713
					c1.573-2.358,3.447-4.519,5.596-6.359c2.132-1.86,4.544-3.382,7.08-4.594c1.267-0.613,2.579-1.125,3.911-1.562
					c0.66-0.238,1.344-0.402,2.013-0.606c0.677-0.182,1.36-0.331,2.039-0.498l0.023,0.097c-0.667,0.204-1.339,0.39-2.001,0.606
					c-0.654,0.239-1.322,0.438-1.963,0.71c-1.295,0.507-2.559,1.085-3.787,1.724c-1.227,0.644-2.419,1.353-3.547,2.15
					c-0.573,0.386-1.115,0.814-1.661,1.235c-0.529,0.441-1.074,0.865-1.575,1.339c-2.056,1.837-3.831,3.975-5.307,6.291
					c-0.37,0.578-0.718,1.171-1.054,1.771c-0.337,0.598-0.644,1.212-0.938,1.832c-0.288,0.622-0.557,1.253-0.799,1.894
					c-0.238,0.635-0.46,1.301-0.617,1.929l-0.646-0.581l4.181-1.367c1.388-0.475,2.801-0.866,4.205-1.284
					c1.408-0.405,2.807-0.846,4.224-1.218l4.24-1.155l4.255-1.098c1.417-0.37,2.838-0.724,4.263-1.059
					c2.845-0.698,5.7-1.349,8.557-1.99c5.717-1.267,11.454-2.439,17.209-3.51c5.756-1.07,11.524-2.069,17.312-2.939L404.906,569.113
					z"/>
			</g>
			<g>
				<path fill="#FEFBDD" d="M336.399,567.472c0,0-61.312,4.672-76.507,17.01c0,0,16.69-23.339,48.455-28.203"/>
				<path fill="#C4C0A1" d="M336.403,567.521c-6.56,0.575-13.104,1.318-19.631,2.176c-6.526,0.86-13.034,1.859-19.509,3.033
					c-6.471,1.186-12.914,2.548-19.236,4.332c-3.158,0.896-6.288,1.899-9.325,3.119c-3.02,1.23-6.007,2.654-8.516,4.662
					l-2.812,2.252l2.139-2.886c1.455-1.962,3.044-3.755,4.722-5.486c1.677-1.727,3.439-3.366,5.267-4.931
					c1.828-1.563,3.725-3.045,5.68-4.446c0.984-0.691,1.98-1.364,2.998-2.006c1.011-0.65,2.044-1.268,3.085-1.868
					c1.041-0.603,2.096-1.177,3.166-1.726c1.066-0.553,2.149-1.075,3.24-1.578c1.094-0.498,2.193-0.98,3.315-1.411
					c1.107-0.464,2.25-0.84,3.375-1.255c1.145-0.362,2.276-0.762,3.435-1.076c1.152-0.334,2.309-0.65,3.481-0.903
					c1.162-0.292,2.344-0.501,3.519-0.729c1.175-0.228,2.365-0.374,3.545-0.564l0.016,0.099c-1.172,0.238-2.35,0.433-3.512,0.708
					c-1.161,0.275-2.326,0.531-3.471,0.868c-1.153,0.305-2.292,0.657-3.428,1.016c-1.141,0.344-2.254,0.771-3.379,1.16
					c-1.104,0.443-2.226,0.846-3.311,1.336c-1.098,0.46-2.175,0.963-3.251,1.469c-1.071,0.515-2.135,1.049-3.182,1.612
					c-1.049,0.56-2.084,1.144-3.104,1.755c-1.02,0.61-2.03,1.236-3.019,1.895c-0.998,0.646-1.963,1.339-2.94,2.015
					c-1.932,1.382-3.807,2.845-5.613,4.389c-1.805,1.544-3.547,3.162-5.202,4.865c-1.642,1.706-3.264,3.47-4.673,5.338l-0.674-0.634
					c2.672-2.086,5.726-3.485,8.801-4.701c3.09-1.199,6.247-2.187,9.432-3.058c6.372-1.736,12.843-3.044,19.336-4.174
					c6.495-1.127,13.023-2.035,19.563-2.822c6.542-0.779,13.097-1.445,19.665-1.942L336.403,567.521z"/>
			</g>
			<g>
				<path fill="#FEFBDD" d="M184.107,478.797c0,0-43.316,26.932-52.493,58.727c0,0,25.811-29.459,38.165-27.075"/>
				<path fill="#C4C0A1" d="M184.134,478.839c-2.808,1.811-5.532,3.747-8.219,5.732c-2.685,1.988-5.315,4.047-7.895,6.17
					c-5.144,4.258-10.099,8.75-14.718,13.565c-4.621,4.809-8.922,9.938-12.621,15.475c-0.479,0.681-0.908,1.394-1.352,2.098
					c-0.438,0.706-0.894,1.402-1.29,2.134l-1.225,2.171l-1.129,2.221c-0.391,0.733-0.691,1.509-1.042,2.26l-0.508,1.136
					l-0.444,1.161c-0.632,1.534-1.105,3.122-1.604,4.699l-0.845-0.462c2.672-3.007,5.451-5.89,8.31-8.707
					c2.852-2.82,5.838-5.508,8.94-8.056c3.103-2.546,6.343-4.948,9.845-6.941c1.752-0.987,3.566-1.89,5.49-2.511
					c1.908-0.614,3.971-0.989,5.961-0.584l-0.02,0.098c-1.977-0.31-3.974,0.148-5.82,0.835c-1.854,0.705-3.618,1.635-5.317,2.662
					c-3.388,2.084-6.539,4.54-9.585,7.105c-3.038,2.58-5.937,5.323-8.796,8.104c-2.843,2.795-5.616,5.678-8.266,8.646l-1.576,1.765
					l0.731-2.227c0.526-1.604,1.03-3.215,1.689-4.768l0.467-1.174l0.528-1.147c0.364-0.759,0.68-1.541,1.084-2.279l1.169-2.235
					l1.265-2.181c0.41-0.733,0.876-1.434,1.325-2.143c0.453-0.706,0.894-1.422,1.383-2.104c3.783-5.549,8.156-10.665,12.841-15.449
					c4.676-4.797,9.703-9.236,14.909-13.437c2.609-2.095,5.27-4.124,7.981-6.081c2.714-1.953,5.465-3.857,8.299-5.636
					L184.134,478.839z"/>
			</g>
			<path fill="#F9B759" stroke="#C4C0A1" stroke-miterlimit="10" d="M320.141,418.965c0,0,41.766,20.523-35.115,34.797
				c-0.297,0.071-30.269,7.121-32.469,18.546c0,0,14.738-13.642,38.572-9.049c0,0-41.565,15.794-40.309,38.013
				c0,0,36.301-31.46,72.97-31.732c0,0-3.001,22.308,6.968,24.228c0,0,7.802-21.379,23.371-18.386c0,0,42.072,9.929,33.256,35.691
				c0,0,19.395-4.504,19.578-25.522c0,0,49.15,10.369,41.502,50.094c0,0,22.138-20.938,40.005-76.258
				c9.473-30.195,7.209-41.949,7.209-41.949L320.141,418.965z"/>
		</g>
		<path fill="#FEFBDD" stroke="#C4C0A1" stroke-miterlimit="10" d="M425.397,179.648c0.456-15.138-4.392-29.491-4.392-29.491
			l-32.317-73.186c0,0,21.388-56.551-6.656-71.28c-22.799-11.978-65.101,29.46-65.101,29.46
			C296.978,23.75,251.948,24.35,248.739,24.35c-0.688,0-5.248,0-5.937,0c-3.209,0-48.236-0.6-68.192,10.802
			c0,0-42.301-41.438-65.104-29.46c-28.043,14.729-6.656,71.28-6.656,71.28l-32.312,73.186c0,0-2.705,7.992-3.881,18.338
			c-0.761,4.104-1.161,8.337-1.161,12.657c0,38.701,31.376,70.081,70.076,70.081c4.897,0,26.525-1.513,30.005-1.761
			c6.648-0.472,13.306-1.888,26.139-5.225c7.249-1.88,27.107-2.393,43.006-2.488v0.112h22.098v-0.112
			c15.898,0.096,35.749,0.608,43.006,2.488c12.826,3.337,19.49,4.753,26.14,5.225c3.873,0.28,24.482,1.761,29.388,1.761
			c38.704,0,70.084-31.38,70.084-70.081C425.438,180.648,425.414,180.145,425.397,179.648z"/>
		<path fill="#F9B759" stroke="#C4C0A1" stroke-miterlimit="10" d="M116.893,90.373c34.388,0,78.201-31.459,81.889-62.911
			c-9.392,1.601-18.409,4.024-24.835,7.689c0,0-42.292-41.438-65.104-29.46c-28.034,14.729-6.647,71.28-6.647,71.28l-4.722,10.689
			C103.875,89.405,110.427,90.373,116.893,90.373z"/>
		<path fill="#C4C0A1" d="M112.828,52.137c0,0,0.359-28.867,6.416-31.355c6.057-2.496,27.796,12.113,27.796,12.113
			S125.653,50.009,112.828,52.137z"/>
		<path fill="#C4C0A1" d="M377.936,52.137c0,0-0.359-28.867-6.424-31.355c-6.054-2.496-27.793,12.113-27.793,12.113
			S365.106,50.009,377.936,52.137z"/>
		<path fill="none" stroke="#C4C0A1" stroke-miterlimit="10" d="M425.397,179.648c0.456-15.138-4.392-29.491-4.392-29.491
			l-32.317-73.186c0,0,21.388-56.551-6.656-71.28c-22.799-11.978-65.101,29.46-65.101,29.46
			C296.978,23.75,251.948,24.35,248.739,24.35c-0.688,0-5.248,0-5.937,0c-3.209,0-48.236-0.6-68.192,10.802
			c0,0-42.301-41.438-65.104-29.46c-28.043,14.729-6.656,71.28-6.656,71.28l-32.312,73.186c0,0-2.705,7.992-3.881,18.338
			c-0.761,4.104-1.161,8.337-1.161,12.657c0,38.701,31.376,70.081,70.076,70.081c4.897,0,26.525-1.513,30.005-1.761
			c6.648-0.472,13.306-1.888,26.139-5.225c7.249-1.88,27.107-2.393,43.006-2.488v0.112h22.098v-0.112
			c15.898,0.096,35.749,0.608,43.006,2.488c12.826,3.337,19.49,4.753,26.14,5.225c3.873,0.28,24.482,1.761,29.388,1.761
			c38.704,0,70.084-31.38,70.084-70.081C425.438,180.648,425.414,180.145,425.397,179.648z"/>
		<g>
			<g>
				<path d="M106.174,131.312c0,0-1.539-0.734-4.345-1.749c-2.803-1.017-6.868-2.31-11.837-3.508
					c-2.482-0.607-5.191-1.179-8.07-1.706c-2.879-0.532-5.933-0.988-9.097-1.409c-1.587-0.177-3.199-0.357-4.832-0.54
					c-1.638-0.132-3.295-0.266-4.965-0.401c-1.669-0.159-3.36-0.176-5.054-0.271l-2.545-0.115l-2.552-0.029
					c-1.7-0.002-3.41-0.067-5.094-0.017c-1.698,0.041-3.391,0.082-5.069,0.122c-3.344,0.185-6.627,0.313-9.8,0.65
					c-0.794,0.074-1.58,0.146-2.359,0.22c-0.776,0.101-1.544,0.201-2.305,0.301c-1.521,0.192-3.007,0.39-4.445,0.639
					c-1.441,0.229-2.846,0.446-4.186,0.745c-1.346,0.271-2.647,0.531-3.877,0.862c-1.237,0.302-2.422,0.598-3.53,0.939
					c-0.558,0.163-1.101,0.322-1.628,0.477c-0.521,0.177-1.025,0.349-1.515,0.515c-1.962,0.66-3.621,1.373-4.98,1.975
					c-1.343,0.636-2.375,1.189-3.047,1.615c-0.684,0.411-1.013,0.679-1.013,0.679l-0.064-0.076c0,0,0.321-0.29,0.986-0.739
					c0.656-0.465,1.664-1.075,2.984-1.788c1.332-0.686,2.979-1.475,4.937-2.202c0.488-0.186,0.993-0.377,1.512-0.573
					c0.526-0.175,1.068-0.354,1.624-0.538c0.558-0.179,1.126-0.378,1.716-0.554c0.593-0.162,1.2-0.328,1.82-0.497
					c1.235-0.359,2.542-0.648,3.895-0.949c1.348-0.328,2.757-0.576,4.206-0.836c0.726-0.126,1.457-0.281,2.204-0.387
					c0.749-0.097,1.507-0.195,2.273-0.295c0.766-0.1,1.54-0.2,2.322-0.302c0.784-0.073,1.576-0.146,2.376-0.22
					c3.189-0.333,6.514-0.483,9.877-0.602c1.679-0.018,3.371-0.034,5.07-0.052c1.714-0.027,3.415,0.062,5.126,0.088l2.562,0.058
					l2.555,0.144c1.698,0.114,3.395,0.149,5.068,0.328c1.675,0.153,3.337,0.307,4.979,0.457c1.637,0.201,3.253,0.4,4.843,0.596
					c3.171,0.46,6.23,0.941,9.109,1.521c2.88,0.57,5.588,1.183,8.067,1.828c4.963,1.275,9.018,2.63,11.811,3.689
					c2.795,1.057,4.329,1.817,4.329,1.816L106.174,131.312z"/>
			</g>
			<g>
				<path d="M103.843,151.63c0,0-5.61-0.837-14.095-1.238c-2.119-0.107-4.418-0.167-6.849-0.206
					c-2.432-0.011-4.995-0.019-7.645,0.073c-2.65,0.065-5.386,0.235-8.158,0.456c-1.387,0.103-2.779,0.271-4.18,0.403
					c-1.395,0.181-2.798,0.343-4.193,0.553c-2.789,0.436-5.571,0.919-8.271,1.564c-0.676,0.159-1.348,0.316-2.018,0.474
					c-0.663,0.18-1.322,0.357-1.979,0.535c-1.319,0.328-2.59,0.763-3.849,1.153c-1.271,0.361-2.469,0.862-3.669,1.272
					c-1.192,0.435-2.318,0.956-3.443,1.397c-1.108,0.48-2.152,1.02-3.182,1.501c-1.013,0.516-1.953,1.082-2.878,1.589
					c-1.789,1.108-3.435,2.134-4.769,3.213c-1.402,0.996-2.455,2.064-3.401,2.859c-0.911,0.832-1.535,1.58-2.006,2.048
					c-0.458,0.48-0.701,0.737-0.701,0.737l-0.078-0.063c0,0,0.228-0.271,0.654-0.781c0.441-0.496,1.023-1.289,1.888-2.185
					c0.891-0.865,1.907-2.002,3.287-3.062c1.312-1.143,2.916-2.279,4.713-3.444c0.925-0.537,1.868-1.136,2.884-1.685
					c1.031-0.515,2.081-1.088,3.194-1.603c2.23-1.021,4.645-1.96,7.187-2.786c1.279-0.386,2.571-0.811,3.908-1.13
					c1.327-0.357,2.679-0.687,4.053-0.96c2.736-0.606,5.548-1.046,8.362-1.438c1.408-0.193,2.821-0.337,4.227-0.5
					c1.41-0.115,2.812-0.266,4.207-0.351c2.788-0.185,5.535-0.318,8.195-0.349c5.32-0.104,10.285,0.081,14.527,0.363
					c8.491,0.551,14.091,1.488,14.091,1.488L103.843,151.63z"/>
			</g>
			<g>
				<path d="M111.405,170.033c0,0-1.108,0.044-3.032,0.297c-1.924,0.243-4.659,0.712-7.887,1.503
					c-1.608,0.414-3.348,0.875-5.155,1.471c-1.812,0.577-3.701,1.253-5.624,2.028c-1.924,0.774-3.879,1.653-5.822,2.631
					c-0.979,0.474-1.931,1.02-2.905,1.529c-0.947,0.56-1.915,1.093-2.85,1.681c-1.868,1.176-3.706,2.401-5.43,3.723
					c-0.433,0.327-0.863,0.653-1.292,0.978c-0.417,0.341-0.831,0.68-1.242,1.017s-0.82,0.672-1.226,1.004
					c-0.392,0.35-0.78,0.696-1.166,1.04c-0.389,0.34-0.774,0.677-1.156,1.011c-0.367,0.351-0.73,0.698-1.09,1.041
					c-0.722,0.686-1.427,1.355-2.079,2.043c-1.351,1.332-2.524,2.688-3.625,3.926c-1.037,1.288-2.054,2.424-2.851,3.511
					c-0.792,1.089-1.542,2.001-2.084,2.804c-1.108,1.594-1.742,2.505-1.742,2.505l-0.086-0.052c0,0,0.561-0.961,1.541-2.643
					c0.47-0.855,1.162-1.815,1.909-2.951c0.751-1.132,1.686-2.349,2.701-3.68c1.071-1.285,2.218-2.693,3.543-4.085
					c0.635-0.723,1.341-1.411,2.069-2.109c0.361-0.352,0.728-0.706,1.096-1.065c0.385-0.342,0.773-0.688,1.165-1.035
					c0.781-0.699,1.597-1.385,2.45-2.044c0.832-0.687,1.708-1.338,2.606-1.973c1.773-1.3,3.66-2.501,5.573-3.648
					c0.954-0.577,1.94-1.101,2.907-1.648c0.992-0.499,1.963-1.033,2.958-1.495c1.978-0.952,3.963-1.805,5.913-2.552
					c1.951-0.746,3.861-1.403,5.698-1.939c1.83-0.558,3.59-0.982,5.214-1.361c6.523-1.462,10.995-1.559,10.995-1.559
					L111.405,170.033z"/>
			</g>
		</g>
		<g>
			<g>
				<path d="M389.452,131.221c0,0.001,1.534-0.76,4.329-1.816c2.793-1.06,6.849-2.414,11.812-3.688
					c2.479-0.646,5.188-1.258,8.067-1.829c2.88-0.58,5.939-1.061,9.11-1.521c1.59-0.195,3.206-0.394,4.843-0.595
					c1.642-0.151,3.304-0.304,4.979-0.458c1.674-0.179,3.371-0.214,5.069-0.328l2.555-0.144l2.562-0.058
					c1.712-0.025,3.413-0.115,5.126-0.088c1.699,0.017,3.392,0.034,5.071,0.052c3.363,0.118,6.688,0.269,9.878,0.602
					c0.799,0.073,1.591,0.146,2.376,0.219c0.782,0.102,1.557,0.202,2.322,0.302c0.767,0.101,1.524,0.198,2.273,0.296
					c0.747,0.105,1.479,0.261,2.204,0.386c1.449,0.261,2.859,0.509,4.207,0.837c1.353,0.301,2.659,0.59,3.895,0.949
					c0.62,0.169,1.227,0.335,1.82,0.497c0.59,0.176,1.157,0.375,1.715,0.554c0.557,0.185,1.099,0.363,1.625,0.538
					c0.519,0.196,1.023,0.388,1.512,0.573c1.958,0.728,3.605,1.517,4.938,2.203c1.319,0.712,2.328,1.322,2.983,1.787
					c0.665,0.449,0.987,0.738,0.987,0.739l-0.064,0.076c0,0-0.329-0.267-1.013-0.679c-0.673-0.426-1.705-0.979-3.047-1.615
					c-1.36-0.602-3.019-1.313-4.981-1.975c-0.489-0.166-0.994-0.338-1.515-0.515c-0.528-0.154-1.07-0.313-1.628-0.477
					c-1.109-0.341-2.293-0.638-3.53-0.939c-1.229-0.331-2.531-0.591-3.878-0.862c-1.34-0.299-2.744-0.516-4.186-0.745
					c-1.438-0.25-2.925-0.446-4.446-0.639c-0.76-0.1-1.528-0.2-2.304-0.302c-0.779-0.072-1.566-0.146-2.359-0.219
					c-3.174-0.337-6.457-0.466-9.801-0.65c-1.679-0.04-3.371-0.081-5.069-0.122c-1.685-0.051-3.395,0.015-5.095,0.017l-2.553,0.029
					l-2.545,0.115c-1.692,0.096-3.385,0.111-5.053,0.271c-1.671,0.135-3.328,0.269-4.966,0.401c-1.633,0.183-3.245,0.362-4.832,0.54
					c-3.165,0.421-6.218,0.877-9.097,1.409c-2.88,0.526-5.59,1.099-8.071,1.706c-4.97,1.198-9.036,2.49-11.838,3.507
					c-2.807,1.015-4.346,1.749-4.346,1.749L389.452,131.221z"/>
			</g>
			<g>
				<path d="M391.81,151.531c0,0,5.6-0.938,14.092-1.488c4.243-0.282,9.208-0.467,14.528-0.363c2.66,0.03,5.408,0.164,8.197,0.349
					c1.395,0.085,2.797,0.235,4.207,0.351c1.404,0.163,2.818,0.307,4.227,0.5c2.814,0.392,5.627,0.832,8.363,1.438
					c1.374,0.274,2.726,0.603,4.053,0.96c1.338,0.319,2.629,0.744,3.909,1.131c2.542,0.826,4.956,1.764,7.188,2.785
					c1.113,0.515,2.163,1.088,3.194,1.603c1.016,0.549,1.959,1.147,2.885,1.685c1.796,1.165,3.4,2.302,4.713,3.444
					c1.38,1.06,2.396,2.196,3.288,3.062c0.864,0.896,1.446,1.688,1.888,2.185c0.427,0.51,0.654,0.781,0.654,0.781l-0.078,0.063
					c0,0-0.244-0.257-0.701-0.737c-0.471-0.468-1.095-1.216-2.006-2.048c-0.947-0.795-2-1.863-3.402-2.859
					c-1.334-1.078-2.979-2.104-4.77-3.213c-0.925-0.507-1.865-1.073-2.878-1.588c-1.029-0.482-2.074-1.021-3.182-1.501
					c-1.125-0.442-2.252-0.964-3.444-1.398c-1.2-0.41-2.398-0.91-3.669-1.272c-1.26-0.391-2.529-0.825-3.85-1.153
					c-0.655-0.177-1.315-0.355-1.979-0.535c-0.67-0.157-1.342-0.314-2.018-0.474c-2.699-0.646-5.482-1.129-8.271-1.564
					c-1.396-0.21-2.8-0.372-4.195-0.553c-1.4-0.133-2.792-0.301-4.18-0.403c-2.772-0.221-5.508-0.391-8.158-0.456
					c-2.649-0.092-5.214-0.084-7.646-0.073c-2.431,0.039-4.729,0.099-6.85,0.206c-8.485,0.401-14.096,1.238-14.096,1.238
					L391.81,151.531z"/>
			</g>
			<g>
				<path d="M384.267,169.934c0,0,4.473,0.097,10.996,1.559c1.625,0.379,3.385,0.804,5.215,1.361
					c1.838,0.536,3.748,1.193,5.699,1.939c1.95,0.747,3.937,1.6,5.914,2.552c0.996,0.462,1.966,0.996,2.959,1.494
					c0.966,0.549,1.953,1.071,2.907,1.649c1.914,1.147,3.801,2.348,5.574,3.648c0.899,0.635,1.775,1.286,2.607,1.972
					c0.854,0.66,1.67,1.346,2.451,2.044c0.392,0.349,0.779,0.693,1.164,1.036c0.369,0.358,0.735,0.714,1.097,1.065
					c0.729,0.698,1.436,1.387,2.07,2.109c1.325,1.391,2.472,2.799,3.544,4.084c1.016,1.331,1.951,2.549,2.702,3.681
					c0.747,1.136,1.439,2.095,1.91,2.951c0.98,1.682,1.541,2.643,1.541,2.643l-0.086,0.052c0,0-0.634-0.911-1.743-2.505
					c-0.542-0.804-1.292-1.715-2.085-2.804c-0.796-1.087-1.813-2.223-2.851-3.512c-1.101-1.238-2.275-2.594-3.626-3.926
					c-0.652-0.687-1.358-1.357-2.079-2.042c-0.36-0.344-0.724-0.69-1.091-1.041c-0.382-0.334-0.768-0.671-1.157-1.011
					c-0.385-0.344-0.773-0.69-1.166-1.04c-0.405-0.333-0.814-0.668-1.226-1.005s-0.825-0.675-1.242-1.016
					c-0.429-0.324-0.86-0.65-1.293-0.978c-1.724-1.321-3.562-2.547-5.431-3.723c-0.935-0.588-1.902-1.122-2.85-1.681
					c-0.975-0.511-1.927-1.056-2.906-1.53c-1.944-0.977-3.899-1.855-5.823-2.63c-1.923-0.775-3.812-1.451-5.625-2.028
					c-1.808-0.596-3.548-1.057-5.156-1.471c-3.228-0.791-5.964-1.26-7.888-1.503c-1.924-0.253-3.032-0.297-3.032-0.297
					L384.267,169.934z"/>
			</g>
		</g>
		<g>
			<path d="M189.685,105.815c0,7.289-5.905,13.201-13.192,13.201c-7.298,0-13.203-5.912-13.203-13.201s5.905-13.201,13.203-13.201
				C183.779,92.614,189.685,98.526,189.685,105.815z"/>
			<path d="M327.646,105.815c0,7.289-5.912,13.201-13.201,13.201s-13.193-5.912-13.193-13.201s5.904-13.201,13.193-13.201
				S327.646,98.526,327.646,105.815z"/>
		</g>
		<g>
			<path fill="#FFFFFF" stroke="#565656" stroke-miterlimit="10" d="M446.287,107.16l-162.19,35.844l-78.65,17.386L43.255,196.242
				c0,0-21.351,3.889-16.61,25.348l55.451,250.886c0,0,7.329,34.725,35.333,28.532c16.434-3.633,94.315-20.234,155.923-33.333
				l0.151,0.641c0,0,15.826-3.633,39.261-9.009c23.516-5.001,39.397-8.377,39.397-8.377l-0.137-0.641
				c61.38-14.081,139.013-31.86,155.447-35.5c27.995-6.177,20.01-40.757,20.01-40.757l-55.446-250.879
				C467.299,101.687,446.287,107.16,446.287,107.16z"/>
			<line fill="none" stroke="#565656" stroke-miterlimit="10" x1="93.161" y1="493.902" x2="236.339" y2="321.554"/>
			<path fill="none" stroke="#565656" stroke-miterlimit="10" d="M462.595,109.128L320.189,306.231c0,0-13.882,20.011-35.549,24.796
				c-21.659,4.784-51.094-10.866-51.094-10.866L29.293,204.899"/>
			<line fill="none" stroke="#565656" stroke-miterlimit="10" x1="526.474" y1="398.123" x2="324.014" y2="302.184"/>
			
				<text transform="matrix(0.9741 -0.226 0.226 0.9741 220.6387 273.5786)" fill="#565656" font-family="'MyriadPro-Regular'" font-size="145.3876">@</text>
		</g>
		<g>
			<path fill="#FEFBDD" d="M288.017,136.191c0,8.157-11.777,20.038-22.898,20.038c-12.173,0-22.043-8.969-22.043-20.043
				c0-11.064,9.87-20.034,22.043-20.034C277.294,116.152,288.017,125.126,288.017,136.191z"/>
			<path fill="#FEFBDD" d="M248.373,136.187c0,11.074-9.554,20.997-21.339,20.997c-11.786,0-26.239-11.646-26.239-20.992
				c0-11.065,14.453-20.039,26.239-20.039C238.819,116.152,248.373,125.122,248.373,136.187z"/>
		</g>
		<g>
			<path d="M257.021,137.499c0-1.552-1.248-2.801-2.793-2.801h-17.522c-1.552,0-2.8,1.249-2.8,2.801
				c0,1.568,8.978,9.609,11.649,9.609C248.404,147.108,257.021,139.34,257.021,137.499z"/>
			<g>
				<path d="M202.663,143.406c3.16,2.834,6.532,5.43,10.106,7.691c0.886,0.576,1.802,1.104,2.713,1.637
					c0.936,0.488,1.846,1.025,2.812,1.444c0.479,0.218,0.951,0.454,1.436,0.657l1.47,0.566c0.484,0.205,0.987,0.349,1.491,0.492
					c0.503,0.139,0.999,0.312,1.508,0.422c1.025,0.182,2.042,0.429,3.078,0.438l0.773,0.053l0.193,0.013
					c0.021,0.002,0.088,0.005,0.073,0.007l0.099-0.006l0.397-0.024l1.59-0.094c1.009-0.178,2.02-0.315,3.011-0.646
					c0.505-0.123,0.989-0.306,1.467-0.506c0.483-0.188,0.967-0.373,1.422-0.626c1.862-0.911,3.572-2.129,5.092-3.548
					c0.765-0.706,1.477-1.469,2.143-2.268c0.656-0.799,1.288-1.652,1.812-2.507l0.409-0.668l0.437,0.642
					c0.537,0.791,1.17,1.572,1.815,2.313c0.66,0.735,1.346,1.45,2.076,2.115c0.726,0.671,1.489,1.301,2.285,1.883
					c0.791,0.591,1.632,1.105,2.483,1.601l1.317,0.665c0.445,0.206,0.909,0.37,1.363,0.559c0.449,0.204,0.932,0.305,1.399,0.451
					l0.707,0.205c0.238,0.056,0.481,0.089,0.722,0.135c0.484,0.071,0.962,0.203,1.452,0.228l1.468,0.099
					c0.431,0.028,0.983-0.048,1.469-0.066l0.752-0.049l0.712-0.146c0.474-0.105,0.952-0.176,1.424-0.308l1.408-0.459
					c0.478-0.133,0.921-0.362,1.378-0.553c0.45-0.209,0.923-0.369,1.354-0.621c0.88-0.463,1.763-0.924,2.598-1.473
					c0.862-0.503,1.658-1.11,2.486-1.67c3.229-2.362,6.201-5.091,8.889-8.08c-0.624,0.788-1.292,1.542-1.963,2.291
					c-0.681,0.742-1.387,1.461-2.099,2.174c-0.728,0.695-1.453,1.396-2.216,2.056c-0.743,0.684-1.544,1.301-2.324,1.942
					c-0.814,0.598-1.613,1.22-2.476,1.753c-0.835,0.575-1.723,1.066-2.611,1.559c-0.434,0.266-0.915,0.442-1.372,0.667
					c-0.465,0.205-0.914,0.45-1.405,0.6l-1.447,0.507c-0.491,0.149-1.01,0.24-1.515,0.361l-0.763,0.168l-0.751,0.065
					c-0.517,0.031-0.966,0.115-1.538,0.103l-1.542-0.077c-0.516-0.023-1.018-0.154-1.526-0.228c-0.253-0.046-0.51-0.08-0.761-0.136
					l-0.742-0.21c-0.492-0.148-1-0.254-1.471-0.462c-0.476-0.192-0.963-0.362-1.43-0.574l-1.38-0.685
					c-0.89-0.507-1.769-1.037-2.594-1.644c-0.83-0.598-1.625-1.244-2.38-1.932c-0.762-0.683-1.474-1.416-2.162-2.171
					c-0.679-0.77-1.321-1.547-1.921-2.415l0.846-0.026c-0.572,0.965-1.222,1.812-1.916,2.649c-0.699,0.826-1.444,1.613-2.245,2.342
					c-1.592,1.465-3.387,2.725-5.345,3.665c-0.478,0.26-0.986,0.452-1.495,0.646c-0.503,0.206-1.013,0.394-1.543,0.52
					c-1.032,0.335-2.129,0.483-3.214,0.657l-1.59,0.082l-0.397,0.021l-0.1,0.005c-0.082,0.001-0.081-0.004-0.126-0.006l-0.204-0.015
					l-0.814-0.061c-1.097-0.027-2.146-0.312-3.206-0.523c-0.525-0.125-1.03-0.315-1.546-0.47c-0.516-0.159-1.029-0.318-1.52-0.539
					l-1.488-0.611c-0.489-0.218-0.963-0.468-1.445-0.7c-0.973-0.449-1.883-1.011-2.817-1.527c-0.909-0.558-1.822-1.111-2.702-1.712
					c-0.88-0.603-1.75-1.216-2.595-1.864c-0.859-0.629-1.681-1.307-2.509-1.974C205.747,146.332,204.162,144.91,202.663,143.406z"/>
			</g>
		</g>
		<path fill="#FEFBDD" stroke="#C4C0A1" stroke-miterlimit="10" d="M438.263,144.668c0,26.939-21.842,68.488-48.781,68.488
			c-26.943,0-48.786-41.549-48.786-68.488c0-26.947,21.843-38.581,48.786-38.581C416.421,106.087,438.263,117.721,438.263,144.668z"
			/>
		<path fill="#FEFBDD" stroke="#C4C0A1" stroke-miterlimit="10" d="M44.848,225.87c25.986-7.089,71.812,3.064,78.901,29.06
			c7.081,25.995-27.26,57.991-53.25,65.071c-25.995,7.089-42.965-10.921-50.05-36.924C13.359,257.082,18.849,232.951,44.848,225.87z
			"/>
		<g>
			<path fill="#FEFBDD" stroke="#C4C0A1" stroke-miterlimit="10" d="M136.199,482.501c2.159-26.858,27.274-66.512,54.135-64.344
				c26.851,2.168,45.284,45.333,43.115,72.193c-2.167,26.851-24.873,36.692-51.733,34.523
				C154.865,522.714,134.03,509.353,136.199,482.501z"/>
			<path fill="#F3CBE0" stroke="#C4C0A1" stroke-miterlimit="10" d="M212.048,490.494c-1.713,13.562-12.626,0.184-28.364-1.801
				c-15.745-1.984-30.354,8.186-28.643-5.384c1.703-13.562,15.857-22.955,31.595-20.971
				C202.374,464.315,213.76,476.925,212.048,490.494z"/>
			<path fill="#F3CBE0" stroke="#C4C0A1" stroke-miterlimit="10" d="M165.154,454.658c1.072,4.488-0.408,8.688-3.306,9.377
				c-2.888,0.688-6.104-2.393-7.176-6.882c-1.064-4.487,0.415-8.688,3.305-9.377C160.874,447.089,164.09,450.169,165.154,454.658z"
				/>
			<path fill="#F3CBE0" stroke="#C4C0A1" stroke-miterlimit="10" d="M184.956,444.633c0.376,6.545-2.761,12.041-6.976,12.281
				c-4.217,0.231-7.945-4.881-8.306-11.426s2.76-12.041,6.984-12.281C180.876,432.976,184.597,438.088,184.956,444.633z"/>
			<path fill="#F3CBE0" stroke="#C4C0A1" stroke-miterlimit="10" d="M208.607,460.011c-1.736,4.265-0.92,8.641,1.832,9.769
				c2.752,1.12,6.401-1.432,8.145-5.696c1.745-4.28,0.92-8.649-1.831-9.777C214,453.186,210.352,455.729,208.607,460.011z"/>
			<path fill="#F3CBE0" stroke="#C4C0A1" stroke-miterlimit="10" d="M190.573,447.073c-1.368,6.408,0.88,12.321,5.024,13.201
				c4.128,0.88,8.593-3.608,9.944-10.018c1.361-6.416-0.871-12.329-5.016-13.201C196.397,436.175,191.933,440.656,190.573,447.073z"
				/>
		</g>
		<g>
			<path fill="#FEFBDD" stroke="#C4C0A1" stroke-miterlimit="10" d="M502.951,419.518c-8.265-25.644-41.82-58.472-67.456-50.19
				c-25.643,8.273-33.669,54.519-25.388,80.162c8.273,25.644,32.637,30.004,58.279,21.723
				C494.022,462.946,511.231,445.152,502.951,419.518z"/>
			<path fill="#F3CBE0" stroke="#C4C0A1" stroke-miterlimit="10" d="M430.967,444.712c4.784,12.811,12.329-2.72,27.194-8.265
				c14.874-5.544,31.421,1.001,26.644-11.817c-4.776-12.81-20.706-18.698-35.572-13.153S426.189,431.903,430.967,444.712z"/>
			<path fill="#F3CBE0" stroke="#C4C0A1" stroke-miterlimit="10" d="M468.379,399.067c-0.009,4.608,2.393,8.36,5.369,8.369
				c2.968,0.008,5.393-3.729,5.4-8.346c0.016-4.616-2.393-8.36-5.369-8.369C470.811,390.722,468.387,394.45,468.379,399.067z"/>
			<path fill="#F3CBE0" stroke="#C4C0A1" stroke-miterlimit="10" d="M446.801,393.858c1.136,6.457,5.457,11.089,9.617,10.354
				c4.151-0.744,6.6-6.577,5.457-13.025c-1.162-6.457-5.45-11.098-9.626-10.346C448.096,381.577,445.647,387.41,446.801,393.858z"/>
			<path fill="#F3CBE0" stroke="#C4C0A1" stroke-miterlimit="10" d="M427.318,414.253c2.663,3.753,2.88,8.201,0.455,9.929
				c-2.416,1.729-6.561,0.088-9.232-3.672c-2.681-3.761-2.881-8.201-0.464-9.938C420.492,408.852,424.638,410.5,427.318,414.253z"/>
			<path fill="#F3CBE0" stroke="#C4C0A1" stroke-miterlimit="10" d="M441.896,397.523c2.8,5.928,1.976,12.193-1.856,14.001
				c-3.816,1.8-9.194-1.536-11.978-7.465c-2.801-5.929-1.984-12.201,1.84-14.002C433.727,388.25,439.096,391.586,441.896,397.523z"
				/>
		</g>
	</g>
</g>
</svg>
